/* XPM */
static char *border[] = {
/* columns rows colors chars-per-pixel */
"70 70 10 1 ",
"  c #7D6812",
". c #7D6813",
"X c #7E6913",
"o c #7E6914",
"O c #7F6A14",
"+ c #7F6A15",
"@ c #806B15",
"# c #806B16",
"$ c #816C16",
"% c #816C17",
/* pixels */
"   @           @         @       @                 @        @         ",
"       @                    @                                         ",
"      @                      @        @                               ",
"      @                                                               ",
"       @       @    @   @         @  @                                ",
"     @@ @     @  @      @         @               @@                  ",
"       @   @        @                     @                        @@@",
"           @        @         @           @                           ",
"      @    @        @         @  @        @                 @    @    ",
"      @@             @       @                     @                  ",
" @                                              @                     ",
"                                                                      ",
"                                                        @@            ",
"  @   @             @   @    @                                        ",
" @   @     @  @@     @                    @        @             @    ",
"           @   @             @@                                  @    ",
"           @                                                          ",
"      @   @@       @        @                               @         ",
"                     @             @   @                              ",
"       @        @@                            @@                     @",
"                                                                     @",
"          @                  @             @        @       @        @",
"          @     @       @       @          @  @    @   @              ",
"                @       @     @   @             @       @             ",
"                                                                      ",
"                    @                             @@             @    ",
"       @                     @                @     @             @   ",
"  @    @  @                       @                 @   @             ",
"                                            @       @                 ",
"                                                                      ",
"                           @@                      @  @@     @   @@   ",
"     @     @     @  @                                       @     @   ",
"                     @       @                     @  @     @     @  @",
"                                                @    @@               ",
"                                                      @               ",
"                   @@                       @                    @    ",
"     @@                    @@             @@    @   @                 ",
"        @                                  %                          ",
"                             @             @       @  @               ",
"                     @               @    @@@       @                 ",
"       @        @                @          @       @             @   ",
"                                  @                @    @             ",
"                                                                      ",
"       @  @                                @                   @@@    ",
"  @                      @  @     @  @ @          @@                  ",
"           @               @@             @                           ",
"                                                                      ",
"                @                                                     ",
"                @           @         @@      @            @  @       ",
"  @                           @                                       ",
"                    @                                                 ",
"         @@@       @@        @                                 @      ",
" @          @                              @                          ",
"          @        @                                    @@@           ",
"                                                                      ",
"               %         @                                            ",
"     @         @@        @             @                             @",
"     @                  @ @      @     @  @        @%                 ",
"               @                                             @        ",
"                                                                      ",
"       @                              @                               ",
"   @    @               @                              @          @@@ ",
" @    @     @                                                      @@ ",
"                                                                      ",
"                            @@                            @           ",
"                    @    @@            @                              ",
"                @  @    @ @                                 @         ",
"                                                                      ",
"                                                                      ",
"                   @                            @                     "
};
