/* XPM */
static char *collectible[] = {
/* columns rows colors chars-per-pixel */
"70 70 170 2 ",
"   c #020202",
".  c #0E0806",
"X  c gray6",
"o  c #1A0F0A",
"O  c #130D08",
"+  c #11100F",
"@  c #1C130B",
"#  c #141110",
"$  c #1E1712",
"%  c #1C1F14",
"&  c #1E1D1C",
"*  c #20140B",
"=  c #2A170F",
"-  c #291B10",
";  c #331C11",
":  c #381E13",
">  c #1F201D",
",  c #3E2513",
"<  c #362112",
"1  c #2D2D2A",
"2  c #2C2A24",
"3  c #2F302C",
"4  c #32332F",
"5  c #343231",
"6  c #3D3D39",
"7  c #413403",
"8  c #412614",
"9  c #462A16",
"0  c #472719",
"q  c #4D2E18",
"w  c #402C1D",
"e  c #4F3019",
"r  c #5F3A1E",
"t  c #5B321F",
"y  c #643C1F",
"u  c #453428",
"i  c #523620",
"p  c #5C3F2B",
"a  c #633320",
"s  c #723E26",
"d  c #3F413B",
"f  c #6C401F",
"g  c #574E24",
"h  c #41433D",
"j  c #6F4525",
"k  c #744028",
"l  c #7F4A22",
"z  c #684934",
"x  c #7B553C",
"c  c #59643F",
"v  c #464242",
"b  c #484A43",
"n  c #5F5858",
"m  c #5A5454",
"M  c #605B5B",
"N  c #697449",
"B  c #657046",
"V  c #6E7850",
"C  c #6C6A63",
"Z  c #6F6969",
"A  c #6E6663",
"S  c #6C7166",
"D  c #71756A",
"F  c #907406",
"G  c #834D26",
"H  c #864F28",
"J  c #8B4A2F",
"K  c #8F5327",
"L  c #84512B",
"P  c #975829",
"I  c #9D5C2D",
"U  c #9F5F30",
"Y  c #9B5433",
"T  c #A45D2A",
"R  c #A05F30",
"E  c #AB5B3A",
"W  c #A25736",
"Q  c #B15F3A",
"!  c #A7602C",
"~  c #AB622D",
"^  c #A56332",
"/  c #AE6531",
"(  c #AF6834",
")  c #B16732",
"_  c #B36934",
"`  c #B7633E",
"'  c #B8633E",
"]  c #B56E39",
"[  c #BB6B39",
"{  c #BE7135",
"}  c #C57E2C",
"|  c #C27633",
" . c #B76240",
".. c #8B7164",
"X. c #8D7468",
"o. c #7A8854",
"O. c #7E8173",
"+. c #DCB108",
"@. c #DCA318",
"#. c #D3A907",
"$. c #E7B60D",
"%. c #E7B90A",
"&. c #EABC0A",
"*. c #E2AC13",
"=. c #EBB915",
"-. c #EAB71C",
";. c #E3B110",
":. c #D59522",
">. c #CB8529",
",. c #EAB425",
"<. c #EAAE3A",
"1. c #83915B",
"2. c #8F9D64",
"3. c #808476",
"4. c #968375",
"5. c #A78D7C",
"6. c #92A069",
"7. c #E9A84E",
"8. c #E9A947",
"9. c #EAA459",
"0. c #898888",
"q. c #8C8383",
"w. c #928989",
"e. c #999786",
"r. c #9F9C9D",
"t. c #A79781",
"y. c #B89485",
"u. c #BC9B8B",
"i. c #A09696",
"p. c #A4A495",
"a. c #A5AC98",
"s. c #BBA199",
"d. c #B8AA95",
"f. c #BBAFAF",
"g. c #B1A6A6",
"h. c #AFB3A1",
"j. c #B1B6A4",
"k. c #B4B8A7",
"l. c #B1AFB0",
"z. c #BEB3B3",
"x. c #B1B0B1",
"c. c #CFBBA9",
"v. c #C5BCA9",
"b. c #D1BEAC",
"n. c #C6BDBC",
"m. c #C1B6B6",
"M. c #D7C5AD",
"N. c #C1C0C1",
"B. c #CEC5C5",
"V. c #D1C9C9",
"C. c #DEDBDC",
"Z. c #DFDBDB",
"A. c #D6DBC7",
"S. c #E2DEDE",
"D. c #D4E5C7",
"F. c #D4E5C8",
"G. c #E6E5CF",
"H. c #EAE9D4",
"J. c #ECEED8",
"K. c #F0F6DF",
"L. c #E7E5E5",
"P. c #E9E7E7",
"I. c #E8E7E8",
"U. c #EAE9E9",
"Y. c #ECEAEB",
"T. c #ECEBEB",
"R. c #EDEBEB",
"E. c #EDEAEB",
"W. c #ECEBEC",
"Q. c #F1F6E0",
/* pixels */
"_ _ _ ~ ~ _ _ _ _ _ _ _ _ _ _ _ _ _ _ _ _ _ _ _ _ _ _ _ _ _ _ _ _ _ _ _ _ _ _ _ _ _ _ _ ~ _ _ _ _ _ ] ] _ _ _ / / / / / / ] ] ] ] ] _ _ _ _ ",
"_ _ _ ~ ~ _ _ _ _ _ _ _ _ _ _ _ _ _ _ _ _ _ _ _ _ _ _ _ _ _ _ _ _ _ _ _ _ _ _ _ _ _ _ _ ~ _ _ _ _ _ _ _ _ _ _ ) ) ) ) ) ) _ _ _ _ _ _ _ _ _ ",
"] ] _ ~ ~ _ _ _ _ _ ] ] ] ] _ _ _ _ _ ] ] ] ] _ _ _ _ _ _ _ _ _ _ _ _ _ _ _ _ _ _ _ _ _ ~ _ _ _ _ _ _ _ _ _ _ _ _ _ _ _ _ _ _ _ _ _ _ _ _ _ ",
"_ _ _ ~ ~ _ _ _ _ _ _ _ _ _ _ _ _ _ _ _ _ _ _ _ _ ] ] ] ] ] ] ] ] ] _ _ _ _ _ _ _ ] ] ] ~ _ _ _ _ _ _ _ _ _ ] ] ] ] ] ] ] ] ] ] _ _ _ _ _ _ ",
"_ ) ) ~ ~ _ _ _ ) ) ) _ _ _ _ _ _ _ _ _ ) ) ) ) ) _ _ _ _ _ ] ] _ _ _ _ _ _ _ _ _ _ _ _ ~ ) _ _ _ _ _ _ _ _ _ _ _ _ _ _ _ _ _ _ ) ) ) _ _ _ ",
"_ / / ~ ~ _ _ _ / / / ) _ ] ] ] ] _ _ _ / / / / / _ _ _ _ _ _ _ _ _ _ _ _ _ _ _ _ _ _ _ ~ ) _ ] ] ] ] ] _ _ _ _ _ _ ) ~ / / / / / / ) _ _ _ ",
"] ] ] / ~ _ _ _ ) ) _ _ _ _ _ _ _ _ _ _ ] ] ] ] ] ] _ _ _ / / / / / _ _ _ _ _ ] ] ] ] ] ~ ) _ _ _ _ _ _ _ _ _ _ _ _ _ _ _ _ _ ) _ ] ] _ _ _ ",
"_ ] ] / ~ _ _ _ _ _ _ _ ) ) ) ) _ _ _ _ ] _ _ _ _ _ ) ) _ ) / ) / ) _ _ _ _ _ ] _ _ _ _ ~ _ _ _ _ _ _ _ _ _ _ _ ) ) ) _ _ _ _ _ _ ] ] _ _ _ ",
"_ _ _ ~ ~ _ _ ] ] ] _ / ~ / ~ / _ _ _ _ _ / ~ ~ ~ ~ ~ ~ ) _ _ _ _ _ _ _ _ _ _ _ _ _ _ _ ~ ) _ _ _ _ _ _ _ _ _ / ~ / ~ / _ _ _ _ _ _ _ _ _ _ ",
"~ ~ ~ T T ~ ~ ~ ~ ~ ~ ~ ~ ~ ~ ~ ~ ~ ~ ~ ~ ~ ~ ~ ~ ~ T ~ ~ ~ ~ ~ ~ ~ ~ ~ ~ ~ ~ ~ ~ ~ ~ ~ T ~ ~ ~ ~ ~ ~ ~ ~ ~ ~ ~ ~ ~ ~ ~ ~ ~ T ~ ~ ~ ~ ~ ~ ~ ",
"~ ~ ~ ~ ~ / / / / / / / / / / / / ~ ~ ~ ~ ~ ~ ~ ~ ~ T ~ ~ ~ ~ ~ ~ ~ ~ ~ ~ ~ ~ ~ ~ ~ ~ ~ T ~ ~ ~ ~ ~ ~ ~ ~ ~ ~ ~ ~ ~ ~ ~ ~ ~ T ~ ~ ~ ~ ~ ~ ~ ",
"_ _ _ _ _ ] ] ] ] ] ] ] ] ] ] ] ] _ _ _ _ _ _ _ _ _ ~ _ _ _ _ _ _ _ _ _ _ _ _ _ _ _ _ _ / / / / / / / / _ _ _ _ _ _ _ _ _ _ ~ ) _ _ _ _ _ _ ",
"_ / / / _ _ _ _ _ _ _ _ _ _ _ _ _ _ _ _ _ _ _ _ _ _ ~ _ _ _ _ _ _ _ _ _ _ _ _ _ _ _ _ _ _ _ _ _ _ _ _ _ _ _ _ _ _ _ _ _ _ _ T ) _ _ ] ] ] ] ",
"_ / / / ) _ _ _ _ _ _ _ _ _ _ _ _ _ _ _ _ _ _ _ _ _ T _ _ _ _ ) _ _ _ _ _ _ _ ) ) ) ) _ _ _ _ _ _ ) ) ) ) _ _ _ _ _ _ _ _ _ T / _ _ ] ] ] ] ",
"_ _ _ _ _ _ _ _ ] ] ] _ _ _ _ _ _ _ _ _ _ _ _ _ _ _ T _ _ _ ) / / _ _ _ _ _ / / / / / _ _ _ _ _ ) / / / / ] ] ] ] _ _ _ _ _ T / _ _ _ _ _ _ ",
"_ _ _ ) / / / / _ _ _ ) / / / / _ _ _ _ _ ] ] ] ] _ T _ _ _ _ ) ) _ _ _ _ _ _ _ ) ) _ _ _ _ _ _ _ ) ) ) ) _ _ _ _ _ _ _ _ _ ~ ) _ _ _ _ _ _ ",
"_ _ _ _ / / / / _ _ _ ) / / / / _ _ _ _ _ ] ] ] ] _ T _ _ _ _ _ _ _ _ _ _ _ _ _ _ _ _ _ _ _ _ _ _ _ _ _ _ _ _ _ _ _ _ _ _ _ ~ ) _ _ _ _ _ _ ",
"_ ] ] ] ] _ _ _ _ _ _ _ _ _ _ _ _ _ _ _ _ _ _ _ _ _ T _ _ _ _ ] ] ] ] _ _ ) / ) _ _ _ _ ] ] ] ] ] _ _ _ _ _ ] ] ] ] ] ] ] _ T / _ _ ] ] ] _ ",
"_ _ _ _ _ _ _ _ / / / / / ) _ _ _ _ _ ] ] ] ] ] ] _ T / / / / / / # + $ / ^ ! ~ / / _ _ _ _ _ _ _ _ _ _ _ _ _ _ _ _ _ _ _ _ ! ) _ _ _ _ _ _ ",
"_ _ _ _ _ _ _ _ / / / / / ) _ _ _ _ ] ] ] ] ] ] _ _ K             I.U.Z.      < / ) _ _ _ _ _ _ _ _ _ _ _ _ _ _ _ _ _ _ _ _ ~ ) _ _ _ _ _ _ ",
"_ _ _ _ _ _ ] ] ] ] ] ] _ _ _ _ _ _ _ _ _ _ _ _ _ y 0.U.U.U.U.U.U.U.U.U.U.U.U.N.z / _ _ _ _ _ _ _ ] ] ] ] _ _ _ _ _ _ _ _ _ ~ ) _ _ _ _ _ _ ",
"~ ~ ~ ~ ~ ~ / / / / / / ~ ~ ~ ~ ~ ~ ~ ~ ~ ~ ~ ~ e i.U.U.U.U.U.U.U.U.U.U.U.U.U.U.N.u ~ ~ ~ ~ ~ ~ ~ / / / / ~ ~ ~ ~ ~ ~ ~ ~ ~ T ~ ~ ~ ~ ~ ~ ~ ",
"~ ~ ~ T T ~ ~ ~ ~ ~ ~ ~ ~ ~ ~ ~ ~ ~ ~ ~ ~ ~ ~ ~ @ P.U.U.U.U.U.U.U.U.U.U.U.U.U.U.U.& ~ ~ T ~ ~ ~ ~ ~ ~ ~ ~ ~ ~ ~ ~ ~ ~ ~ ~ ~ T ~ ~ ~ ~ ~ ~ ~ ",
"_ _ _ ~ ~ _ _ _ _ _ _ _ _ _ _ _ _ _ _ _ _ _ _ 9 w.P.U.U.U.U.U.U.U.U.U.U.U.U.U.U.U.& _ _ ~ ) _ _ _ _ _ _ _ _ _ _ _ _ ) ~ / / / / ~ ) _ _ _ _ ",
"_ _ _ ~ ~ _ _ _ _ _ _ _ _ _ _ _ _ _ _ _ _ _ _ f A z.U.S.S.P.U.U.U.S.U.U.S.U.Z.x.l.u _ _ ~ _ _ ] ] ] _ _ _ _ _ _ _ _ _ ) ) ) ) ) ) _ ] ] _ _ ",
"_ ] _ ~ ~ _ _ _ _ _ _ _ _ _ _ _ _ _ _ _ _ _ _ _ @ f.B.z.z.Z.U.V.V.m.V.P.B.U.z.o o I _ _ ~ ) _ ] ] ] _ ) _ _ _ _ _ _ _ _ _ _ _ _ _ _ ] ] ] _ ",
"_ _ _ ~ ~ _ _ _ _ / / / / / / _ _ _ ] ] ] ] ] ] @ f.z.i.M n.n.z.m.1 1 n.m.n.g.: ; I _ _ T ) _ ) / / / / / _ ] ] ] ] ] ] ] ] ] _ / / / / _ _ ",
"_ _ _ ~ ~ _ _ _ _ ) ) ) ) ) _ _ _ _ _ _ _ _ _ _ _   z.s.k q.z.z.5 ` E X z.z.2 } 7         O _ ) _ _ _ _ _ _ _ _ _ _ _ _ _ _ _ _ ) ) ) ) _ _ ",
"_ _ _ ~ ~ _ _ _ _ _ _ _ _ _ _ _ _ _ _ ) _ ) _ _ _   1 s.s . . . . [ %.E v n Y } 7 o.D.D.F.1.w / _ ] ] ] ] _ _ _ _ _ ) ) ) ) _ _ _ _ _ _ _ _ ",
"] ] _ ~ ~ _ _ _ _ _ ] ] _ ) / / / _ / / / ~ _ ] ]   & Z 0 ' ' `  .&.&.E 5 v Y } 7 c N N B V a.r _ _ _ _ _ _ _ _ _ ) ~ / / / _ _ _ _ _ _ _ _ ",
"_ _ _ ~ ~ _ _ _ _ _ _ _ _ ) ) ) ) _ ) ) ) ) _ _ _   Y t { *.&.&.&.&.&.} 8 J >.&.7 9 q q 9 i D p T / ) _ _ _ _ _ _ _ _ _ _ _ _ _ ) / / ) _ _ ",
"_ _ _ ~ ~ _ _ _ _ _ _ _ _ _ _ _ _ _ _ _ _ _ _ _ _   ' [ @.&.&.&.&.&.&.&.:.:.$.&.7 I / / T T 6 C G / / _ _ _ _ _ _ _ ] ] ] ] ] _ / / / / _ _ ",
"_ _ _ ~ ~ _ _ _ ] ] ] ] ] _ _ _ _ _ _ _ _ _ _ _ _   ` | &.&.&.&.&.&.&.&.=.=.&.&.7 I _ _ ~ T b O.H _ _ _ _ _ _ _ _ _ _ _ _ _ _ _ _ _ _ _ _ _ ",
"~ ~ ~ ~ ~ ~ ~ ~ / / / / ( / ~ ~ ~ ~ ~ ~ ~ ~ ~ ~ /   ` | &.&.&.&.&.&.&.&.7.,.&.&.7 I ~ ~ T I b 3.G ~ ~ ~ ~ ~ ~ ~ ~ ~ ~ ~ ~ ~ ~ ~ ~ ~ ~ ~ ~ ~ ",
"~ ~ ~ T T ~ ~ ~ ~ ~ ~ ~ ~ ~ ~ ~ ~ ~ ~ ~ ~ ~ ~ ~ ~   ` | &.&.&.&.<.&.&.&.,.=.&.&.7 P ~ ~ T I h D l ~ ~ ~ ~ ~ ~ ~ ~ ~ ~ ~ ~ ~ T ~ ~ ~ ~ ~ ~ ~ ",
"_ _ _ ) ) _ _ _ _ _ _ _ _ _ _ _ _ ) ) ) ) ) _ _ _   ` | &.&.&.&.8.&.&.&.&.&.&.&.7 I ) ) ) T d S G _ _ _ _ _ _ _ ) ) ) _ _ _ ~ / _ _ _ _ _ _ ",
"_ _ _ _ _ _ _ _ _ _ _ _ ) ) _ _ _ _ _ _ _ _ _ _ _   ' | &.&.&.&.&.&.&.&.&.=.&.&.7 R _ _ _ ^ h D G ) ) ) _ _ _ _ _ _ _ _ _ _ T ) _ _ _ _ _ _ ",
"_ _ _ _ _ _ _ _ _ _ _ / / / / _ _ ] ] ] ] ] _ _ _   ' | &.&.&.&.&.&.&.&.<.9.=.&.7 U ] ] ] ^ 6 C G / / / _ _ _ _ ] ] ] ] _ _ T / _ _ _ _ _ _ ",
"_ ] ] ] ] ] / / / / _ _ _ _ _ _ _ _ _ _ _ _ _ _ _   ' | &.&.&.7.&.&.&.&.9.9.=.&.7 I _ _ _ ^ 5 m G ~ / / / _ _ _ _ _ _ _ _ _ T / _ _ _ _ _ _ ",
"_ _ _ _ _ _ ) / / _ _ _ _ _ _ _ _ _ _ _ _ _ _ _ _   ` | &.&.&.&.&.&.&.&.9.,.&.&.7 I / / / ] e.p / / ) ) / _ _ _ _ _ _ _ _ _ T / _ _ _ _ _ _ ",
"_ _ _ _ _ _ _ _ _ ] ] ] ] ] ] ] _ _ _ _ _ _ _ _ _   Y { ;.&.&.9.-.&.&.&.&.&.&.+.g L % % % 2 a.r _ _ _ _ _ _ _ _ _ _ _ _ _ _ T / _ _ _ ] ] ] ",
"] ] _ _ _ _ _ _ _ _ _ _ _ _ _ _ _ _ _ _ ] ] ] ] ]   ; W } &.&.7.-.&.&.&.&.&.&.F h.> 2.2.2.6.e.j ] ] _ _ _ _ _ _ _ _ ] ] ] _ ~ ) _ _ _ _ _ _ ",
"_ _ _ _ _ _ _ _ _ _ _ _ _ _ _ _ _ _ _ _ _ _ _ _ ]   a = ` @.&.&.&.&.&.&.&.&.#.  j.> 2.2.2.1.< _ _ _ _ _ _ _ _ _ _ _ _ _ _ _ ! ) _ _ _ _ _ _ ",
"_ _ _ _ _ ] ] ] ] ] _ _ _ _ _ _ _ _ _ _ _ _ _ _ _   x t.1 1 1 1 1 1 1 3 4 5 h Q.Q.& @ @ @ - _ _ _ _ _ _ _ _ _ _ _ _ _ _ _ _ T / _ _ _ _ _ _ ",
"_ _ _ _ _ _ _ _ _ _ _ _ _ _ _ _ _ _ _ _ _ _ _ _ _   x M.c.c.b.b.K.Q.c.b.H.b.J.Q.Q.& _ _ _ _ _ _ _ _ _ _ _ _ _ _ _ _ _ _ _ _ ~ ) _ _ _ _ _ _ ",
"/ / / / / / / / ~ ~ / / / / / / / / / / ~ ~ ~ ~ / O z d.v.y.G.K.H.u.y.u.u.y.G.A.5.$ / / ~ / / / / / / / / / / / / / / / / / T ~ / / / / / / ",
"~ ~ ~ ~ ~ ~ ~ ~ ~ ~ ~ ~ ~ ~ ~ ~ ~ ~ ~ ~ T T T T ~ ~ * @ h 4...k.X.j...j.p.e.p.. * I ~ ~ T ~ ~ ~ ~ ~ ~ ~ ~ ~ ~ ~ ~ ~ ~ ~ ~ ~ T ~ ~ ~ ~ ~ ~ ~ ",
") ) ) ~ ~ ) ) ) _ _ _ _ _ _ _ ) ) ) ) ) / / / / ) ) / I 8 8 8 8 8 < < < < 8 8 y ) ) ) ) ~ / ) ) ) ) ) ) ) ) ) ) ) ) ) ) ) ) / ) ) ) ) ) ) ) ",
"_ _ _ ~ ~ _ _ _ ] ] ] ] ] ] _ _ _ _ _ _ _ _ _ _ _ _ _ _ _ _ _ _ _ _ _ _ _ _ _ _ _ _ _ _ ~ ) _ _ _ _ _ _ _ _ _ _ _ _ _ _ _ _ _ _ _ _ _ _ _ _ ",
"_ _ _ ~ ~ _ _ _ _ _ _ _ _ _ _ _ _ _ _ _ _ _ _ _ _ _ _ _ _ _ _ _ _ _ ] ] ] ] ] _ _ _ _ _ T ~ / / ) _ _ _ _ _ ] ] ] ] ] ] _ _ _ _ _ _ _ _ _ _ ",
"_ _ _ ~ ~ _ _ _ / / / / ) _ _ _ _ _ _ _ _ _ _ _ _ ] ] ] ] ] ] _ _ _ _ _ _ _ / _ _ _ _ _ T / _ ) _ ] ] ] ] _ _ _ _ _ _ _ _ _ _ / / / / / _ _ ",
"_ _ _ ~ ~ _ _ _ / / / / _ _ _ _ _ _ _ _ _ ) ) ) _ ] ] ] _ _ _ _ ) ) ) _ _ / / ) _ _ _ _ T ) _ _ _ ] ] _ _ _ _ _ ) ) ) ) ) ) _ / / / / / _ _ ",
"_ ] _ ~ ~ _ _ _ _ _ _ _ _ _ _ _ _ _ _ _ / / / / / _ _ _ / / / / / / / _ _ _ _ _ _ _ _ _ T ) _ _ _ _ _ / / _ _ _ ) / / / / / _ _ _ _ _ _ _ _ ",
"_ _ _ ~ ~ _ _ _ _ _ _ ) / / / / _ _ _ _ _ ) _ _ _ _ _ _ _ _ _ _ _ _ ) _ _ _ _ _ ( _ ] _ T ) _ _ _ _ _ ) ) _ ] ] _ _ _ _ _ _ _ _ _ _ _ ] _ _ ",
"_ _ _ ~ ~ _ _ _ _ _ _ ) / / / / _ _ _ _ _ _ _ _ _ _ _ _ _ ] ] ] ] ] _ _ _ _ _ _ ( _ ] ] T ) _ _ _ ) ) _ _ ] ] ] ] ] _ _ _ _ _ _ _ _ _ ] _ _ ",
"] ] ] ~ ~ _ _ _ _ _ _ _ _ _ _ _ _ _ _ _ _ / / / / / _ _ _ _ _ _ _ _ _ _ _ _ _ _ _ _ _ _ T ) _ _ ) / / / _ _ _ _ _ ) / / / / _ _ _ _ _ _ _ _ ",
"_ _ _ ~ ~ _ _ _ _ _ _ _ _ _ / ) ) _ _ _ _ _ _ _ _ _ _ _ _ _ _ _ _ _ _ _ _ _ _ _ _ _ _ _ ~ _ _ _ _ _ _ _ _ _ _ _ _ _ ) ) ) ) _ _ _ _ _ _ _ _ ",
") ) ) ~ ~ ) ) ) ) ) ) ) ) / ~ ~ ~ ) ) ) ) ) ) ) ) ) / ) ) ) ) ) ) ) ) ) ) ) ) ) ) ) ) ) ~ / ) ) ) ) ) ) ) ) ) ) ) ) ) ) ) ) / ) ) ) ) ) ) ) ",
"~ ~ ~ T T ~ ~ ~ ~ ~ ~ ~ ~ ~ ~ ~ ~ ~ ~ ~ ~ ~ ~ ~ ~ ~ T ~ ~ ~ ~ ~ ~ ~ ~ ~ ~ ~ ~ ~ ~ ~ ~ ~ T ~ ~ ~ ~ ~ ~ ~ ~ ~ ~ ~ ~ ~ ~ ~ ~ ~ T ~ ~ ~ ~ ~ ~ ~ ",
"/ ) / ~ ~ ~ ~ ~ ~ ~ / / / / / / / / / / / ~ ~ ~ ~ ~ T ~ / / / / / / / / / ~ ~ ~ ~ ~ ~ / ~ / / / / / / / / / / / / ~ ~ ~ ~ / T ~ / / / / / / ",
"_ _ _ _ _ _ / / / / _ _ _ _ _ _ _ _ _ _ _ _ / / / / ~ _ _ _ _ _ _ _ _ _ _ ) / / / / / _ _ _ _ _ _ _ _ _ _ _ _ _ _ _ / / / _ ~ _ _ _ _ _ _ _ ",
"_ _ ] ] ] ] ] _ _ _ _ _ ] ] ] ] ] _ _ ] ] ] ] ] ] ] T _ ] ] ] ] ] _ _ _ _ _ _ _ _ _ _ ] ] ] ] ] ] ] ] _ _ _ _ _ _ _ ] ] ] _ ~ _ ) / / / _ _ ",
"_ _ _ _ _ _ _ _ _ _ _ _ _ _ _ _ _ _ _ _ _ _ _ _ _ _ T _ _ _ _ _ _ _ _ _ _ _ ] _ _ _ _ _ _ _ _ _ _ _ _ _ _ _ ) / / _ _ _ _ _ T ) _ _ _ _ _ _ ",
"_ _ _ ) _ ) _ _ _ _ _ _ _ _ _ _ _ _ _ _ _ _ _ _ _ ) ~ _ _ _ _ _ _ _ _ ] ] ] ] _ _ _ _ _ ) ) _ ) _ _ _ _ _ _ / / / ) _ _ _ _ T / _ _ ] ] ] ] ",
"_ _ / / / / / _ ] ] ] ] ] _ _ _ _ _ _ _ _ _ _ ) / / T _ _ _ _ _ _ _ _ _ _ _ _ _ _ _ _ _ / / / / ) _ _ _ _ _ _ _ _ _ _ _ _ _ T ~ / / ) _ _ _ ",
"_ _ ) ) ) ) ) _ _ _ _ _ _ _ _ _ _ _ _ _ _ _ _ _ ) / T / _ _ _ _ _ _ _ _ _ _ _ _ _ _ _ _ _ ) ) ) _ _ / ) _ _ _ _ _ _ _ _ _ _ T ~ ) ) ) _ _ _ ",
"_ _ _ _ _ _ _ _ / / ~ ) _ _ _ _ _ _ _ _ _ ] ] _ _ _ T ~ _ _ ] _ _ _ _ _ _ _ _ _ _ ] ] ] ] _ _ _ _ ) / / _ _ _ _ _ ] ] ] ] ] T ) _ _ _ _ _ _ ",
"_ _ _ _ _ _ _ _ _ _ _ _ ) / / / / _ _ _ _ _ _ _ _ _ ~ ) _ _ _ _ _ _ _ _ _ _ _ _ _ _ _ _ _ _ / / / / _ _ _ _ _ _ _ _ _ _ _ _ ~ ) _ _ ] ] ] _ ",
"_ _ _ _ _ _ _ _ _ _ _ _ ) ) ) ) ) _ _ _ _ _ _ _ _ _ ~ _ _ _ _ _ _ ) ) _ _ ) ) ) ) ) ) ) _ _ ) ) ) ) _ _ _ _ _ _ _ _ _ _ _ _ ~ ) _ _ _ _ _ _ ",
"_ _ _ _ _ _ _ ] ] ] _ _ _ _ _ _ _ _ _ _ _ _ _ _ _ _ ~ _ _ _ _ _ _ ~ / _ _ / / / / / / / _ _ _ _ _ _ _ _ _ ] ] ] ] ] ] _ _ _ ~ ) _ _ _ _ _ _ "
};
