/* XPM */
static char *exit[] = {
/* columns rows colors chars-per-pixel */
"70 70 155 2 ",
"   c #160529",
".  c #18072B",
"X  c #1B082C",
"o  c #1F0E32",
"O  c #230E2A",
"+  c #35192C",
"@  c #3F1F2B",
"#  c #200D32",
"$  c #251236",
"%  c #2A1032",
"&  c #2B1739",
"*  c #2D1B3D",
"=  c #321437",
"-  c #301B3F",
";  c #3D1C3B",
":  c #42212D",
">  c #49262C",
",  c #582E2A",
"<  c #562E2D",
"1  c #5D332E",
"2  c #4B223D",
"3  c #58273D",
"4  c #5F3531",
"5  c #6D3D2F",
"6  c #632E3F",
"7  c #6E3F32",
"8  c #743F30",
"9  c #7C4535",
"0  c #311C41",
"q  c #3D2241",
"w  c #3B2549",
"e  c #3F284C",
"r  c #402442",
"t  c #402748",
"y  c #412A4E",
"u  c #492E4D",
"i  c #4D304B",
"p  c #54354F",
"a  c #442E52",
"s  c #4D365B",
"d  c #4E385A",
"f  c #573750",
"g  c #5F3E54",
"h  c #51395D",
"j  c #523A55",
"k  c #68384C",
"l  c #7D3840",
"z  c #553D61",
"x  c #644357",
"c  c #634659",
"v  c #684558",
"b  c #714C5C",
"n  c #76505E",
"m  c #78515F",
"M  c #5A4164",
"N  c #654A6F",
"B  c #7A5462",
"V  c #7B5A67",
"C  c #735068",
"Z  c #674C73",
"A  c #684D73",
"S  c #7A5670",
"D  c #8A363A",
"F  c #943D3F",
"G  c #95482F",
"H  c #804930",
"J  c #884E30",
"K  c #9C4E34",
"L  c #895134",
"P  c #9E5136",
"I  c #9F5238",
"U  c #A45D2A",
"Y  c #A7602B",
"T  c #AB622D",
"R  c #AE6530",
"E  c #AF6834",
"W  c #B06732",
"Q  c #B36934",
"!  c #B56E39",
"~  c #963F42",
"^  c #9B4543",
"/  c #845058",
"(  c #874955",
")  c #A24D47",
"_  c #A9514D",
"`  c #B25C53",
"'  c #A0615E",
"]  c #B46253",
"[  c #B96856",
"{  c #BC6559",
"}  c #8C5D65",
"|  c #8F6167",
" . c #906167",
".. c #926368",
"X. c #96686A",
"o. c #9E6D6C",
"O. c #896379",
"+. c #936A7E",
"@. c #9A6D75",
"#. c #A16B67",
"$. c #A16E6D",
"%. c #A3716E",
"&. c #AB766E",
"*. c #A57470",
"=. c #A97670",
"-. c #AE7C71",
";. c #A4767C",
":. c #B27C71",
">. c #C66C5F",
",. c #C2755E",
"<. c #C76B61",
"1. c #C96F61",
"2. c #CF7765",
"3. c #CA7F63",
"4. c #B28177",
"5. c #B38278",
"6. c #BD8C79",
"7. c #CC8164",
"8. c #D18669",
"9. c #D58C6A",
"0. c #D7916C",
"q. c #DB946E",
"w. c #C68E77",
"e. c #C68E78",
"r. c #C79077",
"t. c #CA957A",
"y. c #C6957C",
"u. c #DE9370",
"i. c #DE9A71",
"p. c #D19B7B",
"a. c #E19A72",
"s. c #E4A276",
"d. c #E8A777",
"f. c #E7A678",
"g. c #E8A778",
"h. c #E8A878",
"j. c #EBAE7B",
"k. c #E9AB7C",
"l. c #EAAD7C",
"z. c #EBAE7B",
"x. c #ECB17B",
"c. c #EDB17B",
"v. c #ECB07B",
"b. c #EDB17B",
"n. c #A17581",
"m. c #A57984",
"M. c #AB7A81",
"N. c #BA8985",
"B. c #BC8A85",
"V. c #C39081",
"C. c #CA9682",
"Z. c #D49E84",
"A. c #D6A083",
"S. c #DCA482",
"D. c #E0A881",
/* pixels */
"Q Q Q T T Q Q Q Q Q Q Q Q Q Q Q Q Q Q Q Q Q Q Q Q Q Q Q Q Q Q Q Q Q Q Q Q Q Q Q Q Q Q Q T Q Q Q Q Q ! ! Q Q Q R R R R R R ! ! ! ! ! Q Q Q Q ",
"Q Q Q T T Q Q Q Q Q Q Q Q Q Q Q Q Q Q Q Q Q Q Q Q Q Q Q Q Q Q Q Q Q Q Q Q Q Q Q Q Q Q Q T Q Q Q Q Q Q Q Q Q Q W W W W W W Q Q Q Q Q Q Q Q Q ",
"! ! Q T T Q Q Q Q Q ! ! ! ! Q Q Q Q Q ! ! ! ! Q Q Q Q Q Q Q Q Q Q Q Q Q Q Q Q Q Q Q Q Q T Q Q Q Q Q Q Q Q Q Q Q Q Q Q Q Q Q Q Q Q Q Q Q Q Q ",
"Q Q Q T T Q Q Q Q Q Q Q Q Q Q Q Q Q Q Q Q Q Q Q Q ! ! ! ! ! ! ! ! ! Q Q Q Q Q Q Q ! ! ! T Q Q Q Q Q Q Q Q Q ! ! ! ! ! ! ! ! ! ! Q Q Q Q Q Q ",
"Q W W T T Q Q Q W W W Q Q Q Q Q Q Q Q Q W W W W W Q Q Q Q Q ! ! Q Q Q Q Q Q Q Q Q Q Q Q T W Q Q Q Q Q Q Q Q Q Q Q Q Q Q Q Q Q Q W W W Q Q Q ",
"Q R R T T Q Q Q R R R W Q ! ! ! ! Q Q Q R R R R R Q Q Q Q Q Q Q Q Q Q Q Q Q Q Q Q Q Q Q T W Q ! ! ! ! ! Q Q Q Q Q Q W T R R R R R R W Q Q Q ",
"! ! ! R T Q Q Q W W Q Q Q Q Q Q Q Q Q Q ! ! ! ! ! ! Q Q Q R R R R R Q Q Q Q Q ! ! ! ! ! T W Q Q Q Q Q Q Q Q Q Q Q Q Q Q Q Q Q W Q ! ! Q Q Q ",
"Q ! ! R T Q Q Q Q Q Q Q W W W W Q Q Q Q ! Q Q Q Q Q W W Q W R W R W Q Q Q Q Q ! Q Q Q Q T Q Q Q Q Q Q Q Q Q Q Q W W W Q Q Q Q Q Q ! ! Q Q Q ",
"Q Q Q T T Q Q ! ! ! Q R T R T R Q Q Q Q Q R T T T T T T W Q Q Q Q Q Q Q Q Q Q Q Q Q Q Q T W Q Q Q Q Q Q Q Q Q R T R T R Q Q Q Q Q Q Q Q Q Q ",
"T T T U U T T T T T T T T T T T T T T T T T T T T T U T T T T T T T T T T T T T T T T T U T T T T T T T T T T T T T T T T T U T T T T T T T ",
"T T T T T R R R R R R R R R R R R T T T T T T T T T U T T T T T T T T T T T T T T T T T U T T T T T T T T T T T T T T T T T U T T T T T T T ",
"Q Q Q Q Q ! ! ! ! ! ! ! ! ! ! ! ! Q Q Q Q Q Q Q Q Q T Q Q Q Q Q Q Q Q Q Q Q Q Q Q Q Q Q R R R R R R R R Q Q Q Q Q Q Q Q Q Q T W Q Q Q Q Q Q ",
"Q R R R Q Q Q Q Q Q Q Q Q Q Q Q Q Q Q Q Q Q Q Q Q Q T Q Q Q Q Q Q Q Q Q Q Q Q Q Q Q Q Q Q Q Q Q Q Q Q Q Q Q Q Q Q Q Q Q Q Q U W Q Q ! ! ! ! ",
"Q R R R W Q Q Q Q Q Q Q Q Q Q Q Q Q Q Q Q Q Q Q Q Q U Q Q Q Q W Q Q Q Q Q Q Q W W W W Q Q Q Q Q Q W W W W Q Q Q Q Q Q Q Q Q U R Q Q ! ! ! ! ",
"Q Q Q Q Q Q Q Q ! ! ! Q Q Q Q Q Q Q Q Q Q Q Q Q Q Q U Q Q Q W R R Q Q Q Q Q R R R R R Q Q Q Q Q W R R R R ! ! ! ! Q Q Q Q Q U R Q Q Q Q Q Q ",
"Q Q Q W R R R R Q Q Q W R R R R Q Q Q Q Q ! ! ! ! Q U Q Q Q Q W W Q Q Q Q Q Q Q W W Q Q Q Q Q Q Q W W W W Q Q Q Q Q Q Q Q Q T W Q Q Q Q Q Q ",
"Q Q Q Q R R R R Q Q Q W R R R R Q Q Q Q Q ! ! ! Q Q U Q Q Q Q Q Q Q Q Q Q W W Q Q Q Q Q Q Q Q Q Q Q Q Q Q Q Q Q Q Q Q Q Q Q T W Q Q Q Q Q Q ",
"Q ! ! ! ! Q Q Q Q Q Q Q Q Q Q Q Q Q Q H 5 5 8 K K K G K K K P I I I I K K K K K K K K K I I I 9 7 7 5 Q Q Q ! ! ! ! ! ! ! Q U R Q Q ! ! ! Q ",
"Q Q Q Q Q Q Q Q R R R R R W Q Q Q Q Q : % ; 2 F ~ ~ ~ ~ ~ ~ ~ ~ ~ ~ ~ ~ ~ ~ ~ ~ ~ ~ ~ ~ ~ ~ ~ 3 ; =   Q Q Q Q Q Q Q Q Q Q Q Y W Q Q Q Q Q Q ",
"Q Q Q Q Q Q Q Q R R R R R W Q Q Q Q ! : k <.<.<.<.<.<.<.<.<.<.<.<.<.<.<.<.<.<.<.<.<.<.<.<.<.<.<.<.(   Q Q Q Q Q Q Q Q Q Q Q T W Q Q Q Q Q Q ",
"Q Q Q Q Q Q ! ! ! ! ! ! Q Q Q Q Q Q Q : } f.d.g.l.l.l.l.l.l.l.l.l.l.l.l.l.l.l.l.l.l.l.l.l.l.l.d.g.&.. ! ! Q Q Q Q Q Q Q Q Q T W Q Q Q Q Q Q ",
"T T T T T T R R R R R R T T T T T T T : ..9.[ v.v.v.v.v.v.v.v.v.v.v.v.v.v.v.v.v.v.v.v.v.v.v.v.,.3.:.. R R T T T T T T T T T U T T T T T T T ",
"T T T U U T T T T T T T T T T T T T T : } i.7.v.v.v.v.v.v.v.v.v.v.v.v.v.v.v.v.v.v.v.v.v.v.v.v.9.0.:.. T T T T T T T T T T T U T T T T T T T ",
"Q Q Q T T Q Q Q Q Q Q Q Q Q Q Q Q Q Q : g o.$.$.$.$.%.%.%.%.%.%.$.%.%.%.%.%.$.$.$.%.%.%.%.%.$.$.o.n   Q Q Q Q Q Q Q W T R R R R T W Q Q Q Q ",
"Q Q Q T T Q Q Q Q Q Q Q Q Q Q Q Q Q Q < O                                                         X + Q Q Q Q Q Q Q Q W W W W W W Q ! ! Q Q ",
"Q ! Q T T Q Q Q Q Q Q Q Q Q Q Q Q Q Q Q 1                                                         : Q W Q Q Q Q Q Q Q Q Q Q Q Q Q Q ! ! ! Q ",
"Q Q Q T T Q Q Q Q R R R R R R Q Q Q ! ! 4 X & & X w h h h h h h h h h h h h h h h h h h a   $ & o @ R R R Q ! ! ! ! ! ! ! ! ! Q R R R R Q Q ",
"Q Q Q T T Q Q Q Q W W W W W Q Q Q Q Q Q 1 & d s # a A z 0 * * * - w A Z a - * * * 0 s A z   a d 0 : Q Q Q Q Q Q Q Q Q Q Q Q Q Q W W W W Q Q ",
"Q Q Q T T Q Q Q Q Q Q Q Q Q Q Q Q Q Q W 1 0 Z N $ C +.s           & M.M.u           e O.O.. h A w : ! ! ! Q Q Q Q Q W W W W Q Q Q Q Q Q Q Q ",
"! ! Q T T Q Q Q Q Q ! ! Q W R R R Q R R 1 t +.+.& %.N.s           q l.l.x           e n.w.X S +.h : Q Q Q Q Q Q Q W T R R R Q Q Q Q Q Q Q Q ",
"Q Q Q T T Q Q Q Q Q Q Q Q W W W W Q W W 1 x l.l.q *.N.s . . . . . q l.l.c . . . . . y n.w.X w.l.} : W Q Q Q Q Q Q Q Q Q Q Q Q Q W R R W Q Q ",
"Q Q Q T T Q Q Q Q Q Q Q Q Q Q Q Q Q Q Q 1 x l.l.r *.N.M * * * * * h l.v.V - * * * * h m.e.X w.v.X.: R Q Q Q Q Q Q Q ! ! ! ! ! Q R R R R Q Q ",
"Q Q Q T T Q Q Q ! ! ! ! ! Q Q Q Q Q Q Q 1 x l.l.r *.D.C.6.6.6.6.6.t.v.v.p.6.6.6.6.6.C.S.e.X w.v.X.: Q Q Q Q Q Q Q Q Q Q Q Q Q Q Q Q Q Q Q Q ",
"T T T T T T T T R R R R E R T T T T T T 1 x l.l.r *.Z.;.B m m m m X.v.v.-.B m m m B @.C.e.X w.v.X.: T T T T T T T T T T T T T T T T T T T T ",
"T T T U U T T T T T T T T T T T T T T T 1 x l.l.r *.N.h           q l.l.x .         y m.e.X w.v.X.: T T T T T T T T T T T T U T T T T T T T ",
"Q Q Q W W Q Q Q Q Q Q Q Q Q Q Q Q W W W 1 x l.l.r *.N.s           q l.l.c           e n.w.X w.v.X.: Q Q Q Q Q Q W W W Q Q Q T R Q Q Q Q Q Q ",
"Q Q Q Q Q Q Q Q Q Q Q Q W W Q Q Q Q Q Q 4 x l.l.r *.N.s           q l.l.x           y n.w.X w.v.X.: W W Q Q Q Q Q Q Q Q Q Q U W Q Q Q Q Q Q ",
"Q Q Q Q Q Q Q Q Q Q Q R R R R Q Q ! ! ! 4 x l.l.r *.N.M * * * * * j l.v.B * * * * * d m.e.X w.v.X.: R R Q Q Q Q ! ! ! ! Q Q U R Q Q Q Q Q Q ",
"Q ! ! ! ! ! R R R R Q Q Q Q Q Q Q Q Q Q 1 x l.l.r *.S.V.5.4.4.4.4.y.v.v.t.4.4.4.4.4.6.A.e.X w.v.X.: R R R Q Q Q Q Q Q Q Q Q U R Q Q Q Q Q Q ",
"Q Q Q Q Q Q W R R Q Q Q Q Q Q Q Q Q Q Q 1 x l.l.r =.v.v.v.v.v.v.v.v.v.v.v.v.v.v.v.v.v.v.e.X w.v.X.: W W R Q Q Q Q Q Q Q Q Q U R Q Q Q Q Q Q ",
"Q Q Q Q Q Q Q Q Q ! ! ! ! ! ! ! Q Q Q Q 1 x l.l.r &.s.9.9.a.a.q.i.v.v.v.v.v.v.v.v.v.v.v.w.X w.v.X.: Q Q Q Q Q Q Q Q Q Q Q Q U R Q Q Q ! ! ! ",
"! ! Q Q Q Q Q Q Q Q Q Q Q Q Q Q Q Q Q Q 4 x l.l.r %.,.D ^ >.1._ ] v.v.v.v.v.v.v.v.v.v.v.w.X w.v.X.: Q Q Q Q Q Q Q Q ! ! ! Q T W Q Q Q Q Q Q ",
"Q Q Q Q Q Q Q Q Q Q Q Q Q Q Q Q Q Q Q Q 4 x l.l.r %.,.) i.s.s.] ] v.v.v.v.v.v.v.v.v.v.v.w.X w.v.X.: Q Q Q Q Q Q Q Q Q Q Q Q Y W Q Q Q Q Q Q ",
"Q Q Q Q Q ! ! ! ! ! Q Q Q Q Q Q Q Q Q Q 1 x l.l.r %.#.; p p f #.i.v.v.v.v.v.v.v.v.v.v.v.w.X w.v.X.: Q Q Q Q Q Q Q Q Q Q Q Q U R Q Q Q Q Q Q ",
"Q Q Q Q Q Q Q Q Q Q Q Q Q Q Q Q Q Q Q Q 1 x l.l.r %.r.X.X.X.X.t.v.v.v.v.v.v.v.v.v.v.v.v.w.X w.v.X.: Q Q Q Q Q Q Q Q Q Q Q Q T W Q Q Q Q Q Q ",
"R R R R R R R R T T R R R R R R R R R R 1 x l.l.r =.v.v.v.v.v.v.v.v.v.v.v.v.v.v.v.v.v.v.w.X w.v.X.: R R R R R R R R R R R R U T R R R R R R ",
"T T T T T T T T T T T T T T T T T T T T , x l.l.r =.v.v.v.v.v.v.v.v.v.v.v.v.v.v.v.v.v.v.w.X w.v.X.: T T T T T T T T T T T T U T T T T T T T ",
"W W W T T W W W Q Q Q Q Q Q Q W W W W W 1 x l.l.q %.l.l.l.l.l.l.l.l.l.l.v.v.v.l.v.v.v.l.w.X w.v.X.: W W W W W W W W W W W W R W W W W W W W ",
"Q Q Q T T Q Q Q ! ! ! ! ! ! Q Q Q Q Q Q 1 x l.l.q 6 ` 2.2.2.2.2.2.2.2.2.2.2.2.2.2.2.2.{ l . w.v.X.: Q Q Q Q Q Q Q Q Q Q Q Q Q Q Q Q Q Q Q Q ",
"Q Q Q T T Q Q Q Q Q Q Q Q Q Q Q Q Q Q Q 1 x l.l.q / 8.u.u.u.u.u.u.u.u.u.u.u.u.u.u.u.u.9.' . w.v.X.: Q Q Q Q ! ! ! ! ! ! Q Q Q Q Q Q Q Q Q Q ",
"Q Q Q T T Q Q Q R R R R W Q Q Q Q Q Q Q 1 x l.l.q g } |  . . . . . . . . . . . . . .| } b . w.v...: ! ! ! Q Q Q Q Q Q Q Q Q Q R R R R R Q Q ",
"Q Q Q T T Q Q Q R R R R Q Q Q Q Q Q J J > i -.&.&                                           ..:.v + L Q Q Q Q Q W W W W W W Q R R R R R Q Q ",
"Q ! Q T T Q Q Q Q Q Q Q Q Q Q Q Q Q                                                           .       R R Q Q Q W R R R R R Q Q Q Q Q Q Q Q ",
"Q Q Q T T Q Q Q Q Q Q W R R R R Q Q Q Q Q W Q Q Q Q Q Q Q Q Q Q Q Q W Q Q Q Q Q E Q ! Q U W Q Q Q Q Q W W Q ! ! Q Q Q Q Q Q Q Q Q Q Q ! Q Q ",
"Q Q Q T T Q Q Q Q Q Q W R R R R Q Q Q Q Q Q Q Q Q Q Q Q Q ! ! ! ! ! Q Q Q Q Q Q E Q ! ! U W Q Q Q W W Q Q ! ! ! ! ! Q Q Q Q Q Q Q Q Q ! Q Q ",
"! ! ! T T Q Q Q Q Q Q Q Q Q Q Q Q Q Q Q Q W R R R R Q Q Q Q Q Q Q Q Q Q Q Q Q Q Q Q Q Q U W Q Q W R R R Q Q Q Q Q W R R R R Q Q Q Q Q Q Q Q ",
"Q Q Q T T Q Q Q Q Q Q Q Q Q R W W Q Q Q Q Q Q Q Q Q Q Q Q Q Q Q Q Q Q Q Q Q Q Q Q Q Q Q T Q Q Q Q Q Q Q Q Q Q Q Q Q W W W W Q Q Q Q Q Q Q Q ",
"W W W T T W W W W W W W W R T T T W W W W W W W W W R W W W W W W W W W W W W W W W W W T R W W W W W W W W W W W W W W W W R W W W W W W W ",
"T T T U U T T T T T T T T T T T T T T T T T T T T T U T T T T T T T T T T T T T T T T T U T T T T T T T T T T T T T T T T T U T T T T T T T ",
"R W R T T T T T T T R R R R R R R R R R R T T T T T U T R R R R R R R R R T T T T T T R T R R R R R R R R R R R R T T T T R U T R R R R R R ",
"Q Q Q Q Q Q R R R R Q Q Q Q Q Q Q Q Q Q Q Q R R R R T Q Q Q Q Q Q Q Q Q Q W R R R R R Q Q Q Q Q Q Q Q Q Q Q Q Q Q Q R R R Q T Q Q Q Q Q Q Q ",
"Q Q ! ! ! ! ! Q Q Q Q Q ! ! ! ! ! Q Q ! ! ! ! ! ! ! U Q ! ! ! ! ! Q Q Q Q Q Q Q Q Q Q ! ! ! ! ! ! ! ! Q Q Q Q Q Q Q ! ! ! Q T Q W R R R Q Q ",
"Q Q Q Q Q Q Q Q Q Q Q Q Q Q Q Q Q Q Q Q Q Q Q Q Q Q U Q Q Q Q Q Q Q Q Q Q Q ! Q Q Q Q Q Q Q Q Q Q Q Q Q Q Q W R R Q Q Q Q Q U W Q Q Q Q Q Q ",
"Q Q Q W Q W Q Q Q Q Q Q Q Q Q Q Q Q Q Q Q Q Q Q Q W T Q Q Q Q Q Q Q Q ! ! ! ! Q Q Q Q Q W W Q W Q Q Q Q Q Q R R R W Q Q Q Q U R Q Q ! ! ! ! ",
"Q Q R R R R R Q ! ! ! ! ! Q Q Q Q Q Q Q Q Q Q W R R U Q Q Q Q Q Q Q Q Q Q Q Q Q Q Q Q Q R R R R W Q Q Q Q Q Q Q Q Q Q Q Q Q U T R R W Q Q Q ",
"Q Q W W W W W Q Q Q Q Q Q Q Q Q Q Q Q Q Q Q Q Q W R U R Q Q Q Q Q Q Q Q Q Q Q Q Q Q Q Q Q W W W Q Q R W Q Q Q Q Q Q Q Q Q Q U T W W W Q Q Q ",
"Q Q Q Q Q Q Q Q R R T W Q Q Q Q Q Q Q Q Q ! ! Q Q Q U T Q Q ! Q Q Q Q Q Q Q Q Q Q ! ! ! ! Q Q Q Q W R R Q Q Q Q Q ! ! ! ! ! U W Q Q Q Q Q Q ",
"Q Q Q Q Q Q Q Q Q Q Q Q W R R R R Q Q Q Q Q Q Q Q Q T W Q Q Q Q Q Q Q Q Q Q Q Q Q Q Q Q Q Q R R R R Q Q Q Q Q Q Q Q Q Q Q Q T W Q Q ! ! ! Q ",
"Q Q Q Q Q Q Q Q Q Q Q Q W W W W W Q Q Q Q Q Q Q Q Q T Q Q Q Q Q Q W W Q Q W W W W W W W Q Q W W W W Q Q Q Q Q Q Q Q Q Q Q Q T W Q Q Q Q Q Q ",
"Q Q Q Q Q Q Q ! ! ! Q Q Q Q Q Q Q Q Q Q Q Q Q Q Q Q T Q Q Q Q Q Q T R Q Q R R R R R R R Q Q Q Q Q Q Q Q Q ! ! ! ! ! ! Q Q Q T W Q Q Q Q Q Q "
};
