/* XPM */
static char *floor[] = {
/* columns rows colors chars-per-pixel */
"70 70 8 1 ",
"  c #A65E2A",
". c #A7602B",
"X c #AC642E",
"o c #AE6531",
"O c #AF6835",
"+ c #B06632",
"@ c #B36933",
"# c #B56E39",
/* pixels */
"@@@XX@@@@@@@@@@@@@@@@@@@@@@@@@@@@@@@@@@@@@@@X@@@@@##@@@oooooo#####@@@@",
"@@@XX@@@@@@@@@@@@@@@@@@@@@@@@@@@@@@@@@@@@@@@X@@@@@@@@@@++++++@@@@@@@@@",
"##@XX@@@@@####@@@@@####@@@@@@@@@@@@@@@@@@@@@X@@@@@@@@@@@@@@@@@@@@@@@@@",
"@@@XX@@@@@@@@@@@@@@@@@@@@#########@@@@@@@###X@@@@@@@@@##########@@@@@@",
"@++XX@@@+++@@@@@@@@@+++++@@@@##@@@@@@@@@@@@@X+@@@@@@@@@@@@@@@@@@+++@@@",
"@ooXX@@@ooo@#####@@@ooooo@@@@@@@@@@@@@@@@@@@X+@#####@@@@@@+Xoooooo+@@@",
"###oX@@@++@@@@@@@@@@######@@@ooooo@@@@@#####X+@@@@@@@@@@@@@@@@@+@##@@@",
"@##oX@@@@@@@++++@@@@#@@@@@++@+o+o+@@@@@#@@@@X@@@@@@@@@@@+++@@@@@@##@@@",
"@@@XX@@###@oXoXo@@@@@oXXXXXX+@@@@@@@@@@@@@@@X+@+@@@@@@@oXoXo@@@@@@@@@@",
"XXX  XXXXXXXXXXXXXXXXXXXXX XXXXXXXXXXXXXXXXX XXXXXXXXXXXXXXXXX XXXXXXX",
"XXXXXooooooooooooXXXXXXXXX XXXXXXXXXXXXXXXXX XXXXXXXXXXXoXXXXX XXXXXXX",
"@@@@@############@@@@@@@@@X@@@@@@@@@@@@@@@@@oooooooo@@@@@@@@@@X+@@@@@@",
"@ooo@@@@@@@@@@@@@@@@@@@@@@X@@@@@@@@@@@@@@@@@@@@@++@@@@@@@@@@@@ +@@####",
"@ooo+@@@@@@@@@@@@@@@@@@@@+ +@@@+@@@@@@@++++@@@@@@++++@@@@@@@@@ o@@####",
"@@@@@@@@###@@@@@@@@@@@@@@@ @@@+oo@@@@@ooooo@@@@@+oooo####@@@@@ o@@@@@@",
"@@@+oooo@@@+oooo@@@@@####@ @@@@++@@@@@@@++@@@@@@@++++@@@@@@@@@X+@@@@@@",
"@@@@oooo@@@+oooo@@@@@####@ @@@@@@@@@@@+@@@@@@@@@@@@@@@@@@@@@@@X+@@@@@@",
"@####@@@@@@@@@@@@@@@@@@@@@ @@@@####@@oo+@@@@#####@@@@@#######@ o@@###@",
"@@@@@@@@ooooo+@@@@@#####@@ @@@@@@@@@ooXooo@@@@@@@@@@@@@@@@@@@@.+@@@@@@",
"@@@@@@@@ooooo+@@@@######@@X@@@@@@@@@ooooo+@@@@@@@@@@@@@@@@@@@@X+@@@@@@",
"@@@@@@######@@@@@@@@@@@@@@X@@@@@@@@@@@@@@@@@@@@@@####@@@@@@@@@X+@@@@@@",
"XXXXXXooooooXXXXXXXXXXXXXX XXXXXXXXXXXXXXXXXXXXXXooooXXXXXXXXX XXXXXXX",
"XXX  XXXXXXXXXXXXXXXXXXXXX XXXXXXXXXXXXXXXXX XXXXXXXXXXXXXXXXX XXXXXXX",
"@@@XX@@@@@@@@@@@@@@@@@@@@@@@@@@@@@@@@@@@@@@@X+@@@@@@@@@@@@+XooooX+@@@@",
"@@@XX@@@@@@@@@@@@@@@@@@@@@+ooo+@##@@@@@@@@@@X@@###@@@@@@@@@++++++@##@@",
"@#@XX@@@@@@@@@@@@@@@@@@@@@oooo+@###@@@@@@@@@X+@###@+@@@@@@@@@@@@@@###@",
"@@@XX@@@@oooooo@@@#######@@@@@@@@@@@@@@@@@@@ +@+ooooo@#########@oooo@@",
"@@@XX@@@@+++++@@@@@@@@@@@@ooo@@@@@@@@+oooo+@ +@+@@@@@@@@@@@@@@@@++++@@",
"@@@XX@@@@@@@@@@@@@@+@+@@@@ooo+@@@@@@@oooooo@ +@@@####@@@@@++@+@@@@@@@@",
"##@XX@@@@@##@+ooo@oooX@#####@oooooo@@@@@@@@@ +@@@@@@@@@@@+Xooo@@@@@@@@",
"@@@XX@@@@@@@@++++@++++@@@@@@@@+++++@@@@@o++o +@@+o+@@@@@@@@@@@#@+oo+@@",
"@@@XX@@@@@@@@@@@@@@@@@@@@@@@@@@@@@@@@@@+oooo +@@+oo@@@@@@@#####@oooo@@",
"@@@XX@@@#####@@@@@@@@@@@@@@@@@@@@@@@@@@@@@@@X@@@@@@@@@@@@@@@@@@@@@@@@@",
"XXXXXXXXooooOoXXXXXXXXXXXXXXXXXXXXXXXXXXXXXX XXXXXXXXXXXXXXXXXXXXXXXXX",
"XXX  XXXXXXXXXXXXXXXXXXXXX XXX     XXXXXXXXX XXXXXXXXXXXXXXXXX XXXXXXX",
"@@@++@@@@@@@@@@@@+++++@@@+X+@@@++++@@@@@@@++++@@@@@@@@@@+++@@@Xo@@@@@@",
"@@@@@@@@@@@@++@@@@@@@@@@@@ o+++@@@@+++@@@@@@@@@@++++@@@@@@@@@@ +@@@@@@",
"@@@@@@@@@@@oooo@@#####@@@@ Xoooo@@@ooo+@@@####@+oooo@@@@####@@ o@@@@@@",
"@#####oooo@@@@@@@@@@@@@@@@ +@@@@@@@@@@+@@@@@@@@@oXooo@@@@@@@@@ o@@@@@@",
"@@@@@@+oo+@@@@@@@@@@@@@@@@ @@@++++@@@@@@@@@@@@@@@o++o@@@@@@@@@ o@@@@@@",
"@@@@@@@@@#######@@@@@@@@@@ @@ooooo######@@@@@@@@@@@@@@@@@@@@@@ o@@@###",
"##@@@@@@@@@@@@@@@@@@#####@X@@@+@+@@@@@@@@@########@@@@@@@@###@X+@@@@@@",
"@@@@@@@@@@@@@@@@@@@@@@@@@@X@@@@@@@@@@@@@@@@@@@@@@@@@@@@@@@@@@@.+@@@@@@",
"@@@@@#####@@@@@@@@@@@@@@@@X@@@####@@@@@@@@@@@@@@@@@@@@@@@@@@@@ o@@@@@@",
"@@@@@@@@@@@@@@@@@@@@@@@@@@X@@@@@@@@@@@@@@@@@@@@@@@@@@@@@@@@@@@X+@@@@@@",
"ooooooooXXooooooooooXXoooo oooooooooooooooooXoooooooooXXoooooo Xoooooo",
"XXXXXXXXXXXXXXXXXXXX    XX XXXXXXXXXXXXXXXXX XXXXXXXXXXXXXXXXX XXXXXXX",
"+++XX+++@@@@@@@+++++oooo++o+++++++++++++++++Xo++++++++++++++++o+++++++",
"@@@XX@@@######@@@@@@@@@@@@@@@@@@@@@@@@@@@@@@X+@@@@@@@@@@@@@@@@@@@@@@@@",
"@@@XX@@@@@@@@@@@@@@@@@@@@@@@@@@@@@#####@@@@@ Xoo+@@@@@######@@@@@@@@@@",
"@@@XX@@@oooo+@@@@@@@@@@@@######@@@@@@@o@@@@@ o@+@####@@@@@@@@@@ooooo@@",
"@@@XX@@@oooo@@@@@@@@@+++@###@@@@+++@@oo+@@@@ +@@@##@@@@@++++++@ooooo@@",
"@#@XX@@@@@@@@@@@@@@@ooooo@@@ooooooo@@@@@@@@@ +@@@@@oo@@@+ooooo@@@@@@@@",
"@@@XX@@@@@@+oooo@@@@@+++@@@@@@@@#@+@@@@@O@#@ +@@@@@++@###@@@@@@@@@@#@@",
"@@@XX@@@@@@+oooo@@@@@@@@@@@@@#####@@@@@@O@## +@@@++@@#####@@@@@@@@@#@@",
"###XX@@@@@@@@@@@@@@@@+oooo@@@@@@@@@@@@@@@@@@ +@@+ooo@@@@@+oooo@@@@@@@@",
"@@@XX@@@@@@@@@o++@@@@@@@@@@@@@@@@@@@@@@@@@@@X+@@@@@@@@@@@@++++@@@@@@@@",
"+++XX++++++++oXXX+++++++++o+++++++++++++++++Xo+++++++++++@++++o+++++++",
"XXX  XXXXXXXXXXXXXXXXXXXXX XXXXXXXXXXXXXXXXX XXXXXXXXXXXXXXXXX XXXXXXX",
"oooXXXXXXXoooooooooooXXXXX XoooooooooXXXXXXoXooooooooooooXXXXo Xoooooo",
"@@@@@@oooo@@@@@@@@@@@@ooooX@@@@@@@@@@+ooooo@@@@@@@@@@@@@@@ooo@X@@@@@@@",
"@@#####@@@@@#####@@####### @#####@@@@@@@@@@########@@@@@@@###@X@+ooo@@",
"@@@@@@@@@@@@@@@@@@@@@@@@@@ @@@@@@@@@@@#@@@@@@@@@@@@@@@+oo@@@@@ +@@@@@@",
"@@@+@+@@@@@@@@@@@@@@@@@@@+X@@@@@@@@####@@@@@++@+@@@@@@ooo+@@@@ o@@####",
"@@ooooo@#####@@@@@@@@@@+oo @@@@@@@@@@@@@@@@@oooo+@@@@@@@@@@@@@ Xoo+@@@",
"@@+++++@@@@@@@@@@@@@@@@@+o o@@@@@@@@@@@@@@@@@+++@@o+@@@@@@@@@@ o+++@@@",
"@@@@@@@@ooX+@@@@@@@@@##@@@ X@@#@@@@@@@@@@####@@@@+oo@@@@@##### +@@@@@@",
"@@@@@@@@@@@@+oooo@@@@@@@@@X+@@@@@@@@@@@@@@@@@@oooo@@@@@@@@@@@@X+@@###@",
"@@@@@@@@@@@@+++++@@@@@@@@@X@@@@@@++@@+++++++@@++++@@@@@@@@@@@@X+@@@@@@",
"@@@@@@@###@@@@@@@@@@@@@@@@X@@@@@@Xo@@ooooooo@@@@@@@@@######@@@X+@@@@@@"
};
