/* XPM */
static char *hero[] = {
/* columns rows colors chars-per-pixel */
"70 70 231 2 ",
"   c #010101",
".  c #0A0603",
"X  c #040409",
"o  c #0A060C",
"O  c #0B0C0D",
"+  c #080C04",
"@  c #130D08",
"#  c #091603",
"$  c #191307",
"%  c #010114",
"&  c #0D0D12",
"*  c #030617",
"=  c #131415",
"-  c #151519",
";  c #1C1C1C",
":  c #191818",
">  c #0E1118",
",  c #29180C",
"<  c #331E0F",
"1  c #221F1D",
"2  c #251C13",
"3  c #1E2211",
"4  c #272408",
"5  c #22211F",
"6  c #2D261B",
"7  c #3D2411",
"8  c #36271A",
"9  c #363115",
"0  c #32230C",
"q  c #060124",
"w  c #1E1D22",
"e  c #181825",
"r  c #010C33",
"t  c #291530",
"y  c #1B2024",
"u  c #232324",
"i  c #272826",
"p  c #2C2C2C",
"a  c #292829",
"s  c #352B24",
"d  c #2F302D",
"f  c #34322D",
"g  c #3C3128",
"h  c #2A2735",
"j  c #2F3030",
"k  c #333334",
"l  c #353738",
"z  c #3B3C3C",
"x  c #373936",
"c  c #312E3B",
"v  c #4A2C15",
"b  c #452A15",
"n  c #4E321C",
"m  c #533317",
"M  c #623B1E",
"N  c #473628",
"B  c #443C3A",
"V  c #593E34",
"C  c #583B27",
"Z  c #633C25",
"A  c #3E403E",
"S  c #70411D",
"D  c #574329",
"F  c #41403E",
"G  c #4E4235",
"H  c #5B4332",
"J  c #564234",
"K  c #47402E",
"L  c #784827",
"P  c #674A36",
"I  c #714E34",
"U  c #6A5139",
"Y  c #7C5233",
"T  c #785438",
"R  c #67472D",
"E  c #030043",
"W  c #010058",
"Q  c #170043",
"!  c #271841",
"~  c #362E48",
"^  c #353145",
"/  c #35334A",
"(  c #39354C",
")  c #3E3B45",
"_  c #3E3A54",
"`  c #3E3652",
"'  c #2D2B42",
"]  c #030065",
"[  c #000079",
"{  c #3A0369",
"}  c #2D0C66",
"|  c #413C49",
" . c #413C52",
".. c #443D5B",
"X. c #58375D",
"o. c #45066D",
"O. c #4C057B",
"+. c #5E017A",
"@. c #59076E",
"#. c #67027C",
"$. c #73017D",
"%. c #72197E",
"&. c #4B3E68",
"*. c #522E6F",
"=. c #71217E",
"-. c #673E6D",
";. c #3F4142",
":. c #434342",
">. c #4A4949",
",. c #5C4D42",
"<. c #4A435C",
"1. c #4D495B",
"2. c #4F5153",
"3. c #6A5848",
"4. c #745B47",
"5. c #6E5258",
"6. c #76695A",
"7. c #6A6157",
"8. c #4E4562",
"9. c #544C66",
"0. c #554D6B",
"q. c #594F6B",
"w. c #59546B",
"e. c #544C73",
"r. c #5C5372",
"t. c #645A7A",
"y. c #705864",
"u. c #5E6062",
"i. c #68627A",
"p. c #777979",
"a. c #686B6B",
"s. c #950000",
"d. c #84522D",
"f. c #97592C",
"g. c #8E5D39",
"h. c #895935",
"j. c #915E39",
"k. c #A45D2A",
"l. c #A25E30",
"z. c #91603D",
"x. c #9D6237",
"c. c #8B633D",
"v. c #A6602C",
"b. c #AB622D",
"n. c #A46232",
"m. c #AE6531",
"M. c #AD6A39",
"N. c #AC6836",
"B. c #B06732",
"V. c #B36934",
"C. c #B56E39",
"Z. c #B7713D",
"A. c #825D41",
"S. c #976946",
"D. c #8A7151",
"F. c #93704D",
"G. c #AE7245",
"H. c #877668",
"J. c #8C6D69",
"K. c #A27C6F",
"L. c #AB865B",
"P. c #B5865B",
"I. c #B6915D",
"U. c #B9834A",
"Y. c #B68D63",
"T. c #BA9267",
"R. c #B18D72",
"E. c #948375",
"W. c #C2915D",
"Q. c #C99966",
"!. c #D19F67",
"~. c #D6A36C",
"^. c #DAA773",
"/. c #E2AC72",
"(. c #EAB376",
"). c #F4B976",
"_. c #490581",
"`. c #5A018F",
"'. c #6D0186",
"]. c #700183",
"[. c #730294",
"{. c #6E0E8C",
"}. c #6D2C8A",
"|. c #7201A5",
" X c #5D4F81",
".X c #675B87",
"XX c #745984",
"oX c #6D6185",
"OX c #6F688E",
"+X c #756A8C",
"@X c #796C95",
"#X c #7C7293",
"$X c #7F739A",
"%X c #7B7E84",
"&X c #817398",
"*X c #856996",
"=X c #8F79AC",
"-X c #9C7AC4",
";X c #7E8182",
":X c #878889",
">X c #8D9395",
",X c #939B9C",
"<X c #969998",
"1X c #828394",
"2X c #989CA3",
"3X c #998AB3",
"4X c #8F89A1",
"5X c #A396B9",
"6X c #9BA2A4",
"7X c #A6A7A8",
"8X c #B4B6B7",
"9X c #AE9F94",
"0X c #CEA587",
"qX c #C1C0BF",
"wX c #AE9AC9",
"eX c #A682C8",
"rX c #B5AEC5",
"tX c #C7BBD9",
"yX c #FDBBC2",
"uX c #C2A4E8",
"iX c #B5C2C3",
"pX c #C7C6CC",
"aX c #D6D1D4",
"sX c #F2CCCF",
"dX c #D3E0DE",
"fX c #DEDCE4",
"gX c #E7E7EA",
"hX c #EBEAF5",
"jX c #FBFCFE",
"kX c #F2F2F3",
"lX c #F0F0F9",
/* pixels */
"V.V.V.b.b.V.V.V.V.V.V.V.V.V.V.V.V.V.V.V.V.V.V.V.V.V.V.V.V.V.V.V.V.V.V.V.V.V.V.V.V.V.V.V.b.V.V.V.V.V.C.C.V.V.V.m.m.m.m.m.m.C.C.C.C.C.V.V.V.V.",
"V.V.V.b.b.V.V.V.V.V.V.V.V.V.V.V.V.V.V.V.V.V.V.V.V.V.V.V.V.V.V.V.V.V.V.V.V.V.V.V.V.V.V.V.b.V.V.V.V.V.V.V.V.V.V.B.B.B.B.B.B.V.V.V.V.V.V.V.V.V.",
"C.C.V.b.b.V.V.V.V.V.C.C.C.C.V.V.V.V.V.C.C.C.C.V.V.V.V.V.V.V.V.V.V.V.V.V.V.V.V.V.V.V.V.V.b.V.V.V.V.V.V.V.V.V.V.V.V.V.V.V.V.V.V.V.V.V.V.V.V.V.",
"V.V.V.b.b.V.V.V.V.V.V.V.V.V.V.V.V.V.V.V.V.V.V.V.V.C.C.C.C.C.C.C.C.C.V.V.V.V.V.V.V.C.C.C.b.V.V.V.V.V.V.V.V.V.C.C.C.C.C.C.C.C.C.C.V.V.V.V.V.V.",
"V.B.B.b.b.V.V.V.B.B.B.V.V.V.V.V.V.V.V.V.B.B.B.B.B.V.V.V.V.V.C.C.V.V.V.V.V.V.V.V.V.V.V.V.b.B.V.V.V.V.V.V.V.V.V.V.V.V.V.V.V.V.V.V.B.B.B.V.V.V.",
"V.m.m.b.b.V.V.V.m.m.m.B.V.C.C.C.C.V.V.V.m.m.m.m.m.V.V.V.V.V.V.V.V.m.V.m.g.n.V.V.V.V.V.V.b.B.V.C.C.C.C.C.V.V.V.V.V.V.B.b.m.m.m.m.m.m.B.V.V.V.",
"C.C.C.m.b.V.V.V.B.B.V.V.V.V.V.V.V.V.V.V.C.C.C.C.C.C.V.V.V.m.m.m.m.m.V.S.X M V.C.C.V.C.C.b.B.V.V.V.V.V.V.V.V.V.V.V.V.V.V.V.V.V.B.V.C.C.V.V.V.",
"V.C.C.m.b.V.V.V.V.V.V.V.B.B.B.B.V.V.V.V.C.V.V.V.V.V.B.B.V.m.m.B.m.H m 9XjX9Xm P x.V.V.V.b.V.V.V.V.V.V.V.V.V.V.V.B.B.B.V.V.V.V.V.V.C.C.V.V.V.",
"V.V.V.b.b.V.V.C.C.C.V.m.b.m.b.m.V.V.V.V.V.m.b.b.b.b.b.b.m.V.V.Z G : X u.8Xp.X # s n.V.V.k.B.V.V.V.V.V.V.V.V.V.m.b.m.b.m.V.V.V.V.V.V.V.V.V.V.",
"b.b.b.k.k.b.b.b.b.b.b.b.b.b.b.b.b.b.b.b.b.b.b.b.b.b.k.v.b.Z 9 t [.'.{.`._.[.[.|.W , V n.k.b.b.b.b.b.b.b.b.b.b.b.b.b.b.b.b.b.k.b.b.b.b.b.b.b.",
"b.b.b.b.b.m.m.m.m.m.m.m.m.m.m.m.m.b.b.b.b.b.b.b.b.b.k.b.I ; X @.[.[.[.}.|.eXtXtXaXp.X G C v.b.v.b.b.b.b.b.b.b.b.b.b.b.b.b.b.k.b.b.b.b.b.b.b.",
"V.V.V.V.V.C.C.C.C.C.C.C.C.C.C.C.C.V.V.V.V.V.V.V.V.V.b.V.$ % o.].'.'.=.|.uXrX.XOX3XfX=Xq # l.m.m.m.m.m.m.V.V.V.V.V.V.V.V.V.V.b.B.V.V.V.V.V.V.",
"V.m.m.m.V.V.V.V.V.V.V.V.V.V.V.V.V.V.V.V.V.V.V.V.V.V.b.V., q o.#.'.%.#.-XlXhXgX5X[ fXwXq 4 m.V.V.V.V.V.V.V.V.V.V.V.V.V.V.V.V.k.B.V.V.C.C.C.C.",
"V.m.m.m.B.V.V.V.V.V.V.V.V.V.V.V.V.V.V.V.V.V.V.V.V.V.k.V.N % o.#.#.=.+.wXjXlXjXwX`.gXwXq 4 m.V.V.V.B.B.B.B.V.V.V.V.V.V.V.V.V.k.m.V.V.C.C.C.C.",
"V.V.V.V.V.V.V.V.C.C.C.V.V.V.V.V.V.V.V.V.V.V.V.V.V.V.k.V.g % o.$.$.{.#.3XhXjXjX5XrXkX=XE # m.V.V.B.m.m.m.m.C.C.C.C.V.V.V.V.V.k.m.V.V.V.V.V.V.",
"V.V.V.B.m.m.m.m.V.V.V.B.m.m.m.m.V.V.V.V.V.C.C.C.C.V.k.V.6 * o.+.#.#.}.e.4XpXpX&X3X3X X^ . m.V.V.V.B.B.B.B.V.V.V.V.V.V.V.V.V.b.B.V.V.V.V.V.V.",
"V.V.V.V.m.m.m.m.V.V.V.B.m.m.m.m.V.V.V.V.V.C.C.C.V.V.k.V.0 q O.O._._.*.w...Q E } } &..X! . m.V.V.V.V.V.V.V.V.V.V.V.V.V.V.V.V.b.B.V.V.V.V.V.V.",
"V.C.C.C.C.V.V.V.V.V.V.V.V.V.V.V.V.V.V.V.V.V.V.V.m.m.k.V.0 q o.o.{ O.o.+ p f f 6 9 4 *.t . M.C.C.C.V.V.V.V.V.C.C.C.C.C.C.C.V.k.m.V.V.C.C.C.V.",
"V.V.V.V.V.V.V.V.m.m.m.m.m.B.V.V.V.V.V.C.C.C.C.C.V.B.k.B.6 X + 0 U + X 4.T.I.I.I.Y.I.I.D . m.V.V.V.V.V.V.V.V.V.V.V.V.V.V.V.V.v.B.V.V.V.V.V.V.",
"V.V.V.V.V.V.V.V.m.m.m.m.m.B.V.V.V.V.C.C.C.C.C.n.L L S d.g X X N L.= X 4.T.T.T.T.I.Y.T.V . m.V.V.V.V.V.V.V.V.V.V.V.V.V.V.V.V.b.B.V.V.V.V.V.V.",
"V.V.V.V.V.V.C.C.C.C.C.C.V.V.V.V.V.V.V.V.V.m.S.H X X X O X 6 4.) X.{ ] ] ] ] ] E X X W r # n.V.V.V.C.C.C.C.V.V.V.V.V.V.V.V.V.b.B.V.V.V.V.V.V.",
"b.b.b.b.b.b.m.m.m.m.m.m.b.b.b.b.b.b.b.b.b.g.i X X X X X X b ^.J.J.-.K.J.y.K.R.5.X 4.K.B . v.b.b.b.m.m.m.m.b.b.b.b.b.b.b.b.b.k.b.b.b.b.b.b.b.",
"b.b.b.k.k.b.b.b.b.b.b.b.b.b.b.b.b.b.b.b.b.x.n v n v U H.U H.R.U.Q.5.(.Q.L.(.(.!.y T.).U X k.b.b.b.b.b.b.b.b.b.b.b.b.b.b.b.b.k.b.b.b.b.b.b.b.",
"V.V.V.b.b.V.V.V.V.V.V.V.V.V.V.V.V.V.V.V.V.V.V.V.V.V.V.V.Y 3.r T P.T.^././.(.(.(.!.F.F.J Y B.V.V.V.V.V.V.V.V.V.V.V.V.B.b.m.m.m.m.b.B.V.V.V.V.",
"V.V.V.b.b.V.V.V.V.V.V.V.V.V.V.V.V.V.V.V.V.V.B.B.m.V.Z 7 ; X 2 % H Q././.!.D.D.Y.).F.X 1 U m.V.C.C.C.V.V.V.V.V.V.V.V.V.B.B.B.B.B.B.V.C.C.V.V.",
"V.C.V.b.b.V.V.V.V.V.V.V.V.V.V.V.V.V.V.V.V.V.V.V.V.V.B X : y 5 5 ; N L.(.~.W.Q.^.Q.K f : X k.V.V.C.C.V.B.V.V.V.V.V.V.V.V.V.V.V.V.V.V.C.C.C.V.",
"V.V.V.b.b.V.V.V.V.m.m.m.m.m.m.V.V.V.C.C.C.C.C.C.C.C.7.X a k k x k X X F.W.Q.L.T 8 X x x p M.V.B.m.m.m.m.m.V.C.C.C.C.C.C.C.C.C.V.m.m.m.m.V.V.",
"V.V.V.b.b.V.V.V.V.B.B.B.B.B.V.V.V.V.V.V.V.V.V.V.V.V.J X - x A :.x 6 X % H H s X X @ k F k U B.B.V.V.V.V.V.V.V.V.V.V.V.V.V.V.V.V.B.B.B.B.V.V.",
"V.V.V.b.b.V.V.V.V.V.V.V.V.V.V.V.V.V.V.B.V.B.V.V.V.V.N X X ; ; a x : . X X X X 5 . X k F = . m.V.V.C.C.C.C.V.V.V.V.V.B.B.B.B.V.V.V.V.V.V.V.V.",
"C.C.V.b.b.V.V.V.V.V.C.C.V.B.m.m.m.V.m.m.m.b.V.C.V.C.N O ; X u ;.x : # q 5XrXrX7XX = k B : @ V.V.V.V.V.V.V.V.V.V.V.B.b.m.m.m.V.V.V.V.V.V.V.V.",
"V.V.V.b.b.V.V.V.V.V.V.V.V.B.B.B.B.V.B.B.B.B.m.V.L . ; w k u O u X p.dX..].pXsXs.iX7XX u X @ d.V.B.m.B.V.V.V.V.V.V.V.V.V.V.V.V.V.B.m.m.B.V.V.",
"V.V.V.b.b.V.V.V.V.V.V.V.V.V.V.V.V.V.V.V.V.V.V.V.Y = ; x F x ; u X :XhX>XaXqXyXs.dXqXX k u ; ; M.B.m.m.V.V.V.V.V.V.V.C.C.C.C.C.V.m.m.m.m.V.V.",
"V.V.V.b.b.V.V.V.C.C.C.C.C.V.V.V.V.V.V.V.V.V.V.V.R k :.A x k ; i X :XkX1.XXX.*XX.8X7XX :.x :.2 m.V.V.V.V.V.V.V.V.V.V.V.V.V.V.V.V.V.V.V.V.V.V.",
"b.b.b.b.b.b.b.b.m.m.m.m.M.m.b.b.b.b.b.b.b.b.b.I = u x A x ; = u X p.aX; X X X + X X w ; :.k f M.b.m.b.b.b.b.b.b.b.b.b.b.b.b.b.b.b.b.b.b.b.b.",
"b.b.b.k.k.b.b.b.b.b.b.b.b.b.b.b.b.b.b.b.b.v.b.I X a ;.A F = X ; ; O X x x ; u u - >.a = :.y F F.b.b.b.b.b.b.b.b.b.b.b.b.b.b.k.b.b.b.b.b.b.b.",
"V.V.V.B.B.V.V.V.V.V.V.V.V.V.V.V.V.B.B.B.B.B.V.I u k a d k = X = = ; x x u u u k a d 5 = l x d 1 V.V.B.V.V.V.V.V.B.B.B.V.V.V.b.m.V.V.V.V.V.V.",
"V.V.V.V.V.V.V.V.V.V.V.V.B.B.V.V.V.V.V.V.V.m.d.H l x a h = X X X X ; ) u a x x x a u - = - k :.p Y f.B.B.V.V.V.V.V.V.V.V.V.V.k.B.V.V.V.V.V.V.",
"V.V.V.V.V.V.V.V.V.V.V.m.m.m.m.V.V.C.C.C.C.j.X & i a h >.; X X X = u x a :.A A :.a k w X = a ; k X b m.b.V.V.V.V.C.C.C.C.V.V.k.m.V.V.V.V.V.V.",
"V.C.C.C.C.C.m.m.m.m.V.V.V.V.V.V.V.V.V.V.V.S.; O l >.u x x O X X ; x x a A x x :.k O O X X a x >.X v m.b.m.V.V.V.V.V.V.V.V.V.k.m.V.V.V.V.V.V.",
"V.V.V.V.V.V.B.m.m.V.V.V.V.V.V.V.V.V.V.B.V.f.X O l :.u u k = X O l x x a A x x A f k ; X O a a d X v B.m.m.V.V.V.V.V.V.V.V.V.k.m.V.V.V.V.V.V.",
"V.V.V.V.V.V.V.V.V.C.C.C.C.C.C.C.V.V.V.V.V.x.u O u ) x k k = X & u w | a A x x :.a :.) O X & k 1 X v V.m.V.V.V.V.V.V.V.V.V.V.k.m.V.V.V.C.C.C.",
"C.C.V.V.V.V.V.V.V.V.V.V.V.V.V.V.V.V.V.V.C.C.3.X = a a a a ; X X & k k k u i i u x k k = X x k 5 X v V.m.V.V.V.V.V.V.C.C.C.V.b.B.V.V.V.V.V.V.",
"V.V.V.V.V.V.V.V.V.V.V.V.V.V.V.V.V.V.V.V.V.V.T - 5 ; = l l ; X X u x w u ; u u ; u A i X X a ; ; X n V.m.V.V.V.V.V.V.V.V.V.V.v.B.V.V.V.V.V.V.",
"V.V.V.V.V.C.C.C.C.C.V.V.V.V.V.V.V.V.V.V.V.V.V.I X ; - y e * X = x u j x ; a u x k j :.u X * > 1 X v V.B.V.V.V.V.V.V.V.V.V.V.k.m.V.V.V.V.V.V.",
"V.V.V.V.V.V.V.V.V.V.V.V.V.V.V.V.V.V.V.V.V.V.V.I O x a 2 s s . X ; X = ; O = O ; ; X - a F $ 6 X u P V.V.V.V.V.V.V.V.V.V.V.V.b.B.V.V.V.V.V.V.",
"m.m.m.m.m.m.m.m.b.b.m.m.m.m.m.m.m.m.m.m.b.b.b.m.4.X Y.^.~.!.g X : ; = X u u X x d X = X c.!.Q.0 ,.G.m.m.m.m.m.m.m.m.m.m.m.m.k.b.m.m.m.m.m.m.",
"b.b.b.b.b.b.b.b.b.b.b.b.b.b.b.b.b.b.b.b.k.k.k.k.A.X L.~.Q.T.8 X w & - & - - & ; ; o X X h.Q.Q.6 7 b.v.b.b.b.b.b.b.b.b.b.b.b.k.b.b.b.b.b.b.b.",
"B.B.B.b.b.B.B.B.V.V.V.V.V.V.V.B.B.B.B.B.m.m.b.m.d.N < , t % X  .oX_ / / / ( ( / /  .( & * 1 < , I B.b.B.B.B.B.B.B.B.B.B.B.B.m.B.B.B.B.B.B.B.",
"V.V.V.b.b.V.V.V.C.C.C.C.C.C.V.V.V.V.V.V.V.V.V.V.V.V.V.V.V., + #X#X+X_ ^ _ h '  .' i.#X^ . M.V.V.V.V.V.V.V.V.V.V.V.V.V.V.V.V.V.V.V.V.V.V.V.V.",
"V.V.V.b.b.V.V.V.V.V.V.V.V.V.V.V.V.V.V.V.V.V.V.V.V.V.V.V.n.s 9.#X#X#X+X9.e a.w.X <.r.8.e . f.m.b.m.V.V.V.V.V.C.C.C.C.C.C.V.V.V.V.V.V.V.V.V.V.",
"V.V.V.b.b.V.V.V.m.m.m.m.B.V.V.V.V.V.V.V.V.V.V.V.V.C.C.C.8 h i.#X@X#X&X9.X %X1X` +X@X<.- . n.V.B.V.V.C.C.C.V.V.V.V.V.V.V.V.V.V.m.m.m.m.m.V.V.",
"V.V.V.b.b.V.V.V.m.m.m.m.V.V.V.V.V.V.V.V.V.B.B.B.V.C.C.C., o 0.$X$X@Xi.1.N @ ~ $X&X.X..w . n.V.V.V.V.C.V.V.V.V.V.B.B.B.B.B.B.V.m.m.m.m.m.V.V.",
"V.C.V.b.b.V.V.V.V.V.V.V.V.V.V.V.V.V.V.V.m.m.m.m.m.V.V.V.N h .Xr.r.0.8.i.R 4.X  .@X&Xq.> . n.V.V.V.V.V.m.m.V.V.V.B.m.m.m.m.m.V.V.V.V.V.V.V.V.",
"V.V.V.b.b.V.V.V.V.V.V.B.m.m.m.m.V.V.V.V.V.B.V.V.V.V.V.F.a X = w.0./  .X P m ~ (  .+Xr.o . n.V.V.V.V.V.B.B.V.C.C.V.V.V.V.V.V.V.V.V.V.V.C.V.V.",
"V.V.V.b.b.V.V.V.V.V.V.B.m.m.m.m.V.V.V.V.V.V.V.V.V.V.V.3.X w.t.#X&Xt.` e.D C * 0..Xt.<.e . n.V.V.V.B.B.V.V.C.C.C.C.C.V.V.V.V.V.V.V.V.V.C.V.V.",
"C.C.C.b.b.V.V.V.V.V.V.V.V.V.V.V.V.V.V.V.V.m.m.m.m.m.V.6.X 0.e.0.w.9._ y.M.b & <.t...( w . v.V.V.B.m.m.m.V.V.V.V.V.B.m.m.m.m.V.V.V.V.V.V.V.V.",
"V.V.V.b.b.V.V.V.V.V.V.V.V.V.m.B.B.V.V.V.V.V.V.V.V.B.V.6.X t.t._ oXt.h 7 V.7 ^ ^ r.oXoXc . n.V.V.V.V.V.V.V.V.V.V.V.V.B.B.B.B.V.V.V.V.V.V.V.V.",
"B.B.B.b.b.B.B.B.B.B.B.B.B.m.b.b.b.B.B.B.B.B.B.B.B.B.m.6.X 9.r.@X@X9.8 N.B.7 c ( 8.9.9.h + n.B.m.B.B.B.B.B.B.B.B.B.B.B.B.B.B.m.B.B.B.B.B.B.B.",
"b.b.b.k.k.b.b.b.b.b.b.b.b.b.b.b.b.b.b.b.b.b.b.b.k.b.C ; X X X ( ..^ 2 b.b.J X <.oX( X X X g n.b.b.b.b.b.b.b.b.b.b.b.b.b.b.b.k.b.b.b.b.b.b.b.",
"m.B.m.b.b.b.b.b.b.b.m.m.m.m.m.m.m.m.m.m.m.b.b.b.b.b.g X : 2.x X ^ ( 6 m.m.J X c <.h F :.- @ b.m.m.m.m.m.m.m.m.m.m.b.b.b.b.m.k.b.m.m.m.m.m.m.",
"V.V.V.V.V.V.m.m.m.m.V.V.V.V.V.V.V.V.V.V.V.V.m.m.m.M.,.X X fXkX2.X a N V.V.J = ; a X pXjX;X. G.M.M.V.V.V.V.V.V.V.V.V.m.m.m.V.b.V.V.V.V.V.V.V.",
"V.V.C.C.C.C.C.V.V.V.V.V.C.C.C.C.C.V.V.C.C.C.C.C.h.X X pXgXp.gX2.X X , V.V.< X X X X X gX>XaX>.X U C.V.V.V.V.V.V.V.V.C.C.C.V.b.V.B.m.m.m.V.V.",
"V.V.V.V.V.V.V.V.V.V.V.V.V.V.V.V.V.V.V.V.V.V.V.V.I u.p.gXjXpX,Xp.p.;XH.M.V.6.:Xp.p.p.p.<X<XkX>Xa.H V.V.V.V.V.B.m.m.V.V.V.V.V.k.B.V.V.V.V.V.C.",
"V.V.V.B.V.B.V.V.V.V.V.V.V.V.V.V.V.V.V.V.V.B.V.Y X :X6X>X>X6X<X<X2X,X>XN C.E.7X,X6X6X2X<X2X>X<X<Xu v V.B.V.V.m.m.m.B.V.V.V.V.k.m.V.V.C.C.C.C.",
"V.V.m.m.m.m.m.V.C.C.C.C.C.V.V.V.V.V.V.V.V.m.V.M X X X X o X . X X X X 7 V.N X X X X X = X X X X O n V.m.V.V.V.V.V.V.V.V.V.V.k.b.m.m.B.V.V.V.",
"V.V.B.B.B.B.B.V.V.V.V.V.V.V.V.V.V.V.V.V.V.V.V.n.d.z.Y d.h.g.g.g.j.z.h.f.V.x.j.j.j.j.z.g.z.g.g.j.g.x.m.m.V.V.V.V.V.V.V.V.V.V.k.b.B.B.B.V.V.V.",
"V.V.V.V.V.V.V.V.m.m.b.B.V.V.V.V.V.V.V.V.V.C.C.V.V.V.k.b.B.V.C.V.V.V.V.V.B.V.V.V.V.C.C.C.C.V.V.V.V.B.b.m.V.V.V.V.V.C.C.C.C.C.k.B.V.V.V.V.V.V.",
"V.V.V.V.V.V.V.V.V.V.V.V.B.m.m.m.m.V.V.V.V.V.V.V.V.B.v.m.B.B.V.V.V.V.V.V.V.V.B.B.B.V.V.V.V.V.m.m.b.m.V.B.V.V.V.V.V.V.V.V.V.V.b.B.V.V.C.C.Z.Y.",
"V.V.V.V.V.V.V.V.V.V.V.V.B.B.B.B.B.V.V.V.V.V.V.V.V.V.b.V.V.V.V.V.V.B.B.V.V.B.B.B.m.B.B.B.V.V.B.B.B.B.V.V.V.V.V.V.V.V.V.V.V.V.b.B.V.V.V.P.0XL.",
"V.V.V.V.V.V.V.C.C.C.V.V.V.V.V.V.V.V.V.V.V.V.V.V.V.V.b.V.V.V.V.V.V.b.m.V.V.m.m.m.b.b.m.b.V.V.V.V.V.V.V.V.V.C.C.C.C.C.C.V.V.V.b.B.V.V.V.G.V.F."
};
